<?xml version="1.0" encoding="UTF-8" standalone="no"?>
<!-- Created with Inkscape (http://www.inkscape.org/) -->

<svg
   xmlns:dc="http://purl.org/dc/elements/1.1/"
   xmlns:cc="http://creativecommons.org/ns#"
   xmlns:rdf="http://www.w3.org/1999/02/22-rdf-syntax-ns#"
   xmlns:svg="http://www.w3.org/2000/svg"
   xmlns="http://www.w3.org/2000/svg"
   xmlns:sodipodi="http://sodipodi.sourceforge.net/DTD/sodipodi-0.dtd"
   xmlns:inkscape="http://www.inkscape.org/namespaces/inkscape"
   width="73.989594mm"
   height="80.697906mm"
   viewBox="0 0 73.989594 80.697906"
   version="1.1"
   id="svg8"
   inkscape:version="0.92.3 (2405546, 2018-03-11)"
   sodipodi:docname="sol.svg">
  <defs
     id="defs2">
    <clipPath
       clipPathUnits="userSpaceOnUse"
       id="clipPath874">
      <ellipse
         style="fill:#000000;fill-opacity:1;stroke-width:0.26935098"
         id="ellipse876"
         cx="136.07143"
         cy="90.247025"
         rx="43.089287"
         ry="40.443455" />
    </clipPath>
  </defs>
  <sodipodi:namedview
     id="base"
     pagecolor="#ffffff"
     bordercolor="#666666"
     borderopacity="1.0"
     inkscape:pageopacity="0.0"
     inkscape:pageshadow="2"
     inkscape:zoom="1.5642941"
     inkscape:cx="141.97291"
     inkscape:cy="158.26488"
     inkscape:document-units="mm"
     inkscape:current-layer="layer1"
     showgrid="false"
     inkscape:window-width="1366"
     inkscape:window-height="689"
     inkscape:window-x="0"
     inkscape:window-y="0"
     inkscape:window-maximized="1"
     fit-margin-top="0"
     fit-margin-left="0"
     fit-margin-right="0"
     fit-margin-bottom="0"
     inkscape:pagecheckerboard="true" />
  <metadata
     id="metadata5">
    <rdf:RDF>
      <cc:Work
         rdf:about="">
        <dc:format>image/svg+xml</dc:format>
        <dc:type
           rdf:resource="http://purl.org/dc/dcmitype/StillImage" />
        <dc:title></dc:title>
      </cc:Work>
    </rdf:RDF>
  </metadata>
  <g
     inkscape:label="Layer 1"
     inkscape:groupmode="layer"
     id="layer1"
     transform="translate(-23.434523,-14.387201)">
    <path
       inkscape:connector-curvature="0"
       id="path890"
       d="m 60.077174,85.769984 c -0.691052,-1.20684 -1.642962,-2.84909 -2.115354,-3.649455 -1.248823,-2.115854 -1.776204,-3.205953 -1.624439,-3.357718 0.07345,-0.07345 0.742932,-0.0029 1.487742,0.156879 1.723109,0.369541 5.280631,0.373285 7.258582,0.0076 0.841335,-0.155528 1.584063,-0.228418 1.650508,-0.161976 0.06644,0.06645 -0.438775,1.116431 -1.122707,2.333303 -0.683932,1.216871 -1.797055,3.216367 -2.473611,4.443337 -0.676555,1.22696 -1.359286,2.2739 -1.517179,2.32653 -0.157895,0.0526 -0.852487,-0.89171 -1.543542,-2.09855 z M 44.072022,78.039326 v -5.456385 l 1.921735,1.446413 c 1.056955,0.795528 3.151101,2.035493 4.653659,2.755479 l 2.731923,1.309069 -2.073971,1.181412 c -2.492398,1.419765 -4.891415,2.812801 -6.241158,3.624053 l -0.992188,0.596347 z m 33.072918,4.376155 c -0.945885,-0.561924 -2.99816,-1.765019 -4.56061,-2.673545 -2.541823,-1.478005 -3.213634,-2.119323 -2.220103,-2.119323 0.670248,0 5.084922,-2.43858 6.76745,-3.738205 l 1.733055,-1.338657 0.07524,2.817394 c 0.04138,1.549567 0.04138,4.000135 0,5.445707 l -0.07524,2.62831 z M 59.153273,74.950707 c -2.872539,-0.261479 -4.30194,-0.676663 -7.276042,-2.113404 -4.711087,-2.275848 -7.884575,-5.458595 -10.200401,-10.230164 -1.732027,-3.568698 -2.188858,-5.663047 -2.178562,-9.98765 0.0094,-3.931902 0.465254,-6.056665 2.038477,-9.500666 2.543673,-5.56845 8.095136,-10.271942 14.08361,-11.932376 2.471833,-0.685369 7.259603,-0.813376 10.254335,-0.274163 4.994497,0.89928 9.935046,4.046658 13.308272,8.478038 1.186326,1.558465 3.116498,5.569654 3.62853,7.540625 0.698794,2.689876 0.83515,7.342603 0.298532,10.186458 -0.760066,4.028035 -2.68656,7.808793 -5.560949,10.913401 -4.806246,5.191188 -11.154212,7.579087 -18.395802,6.919901 z M 32.115979,68.692926 c 1.896893,-3.419663 2.569195,-4.599109 3.503701,-6.146689 l 0.940366,-1.557282 1.11786,2.562143 c 0.614824,1.409176 1.82328,3.544406 2.685459,4.744953 l 1.567598,2.182812 H 36.52814 31.125317 Z m 50.015915,0.17087 c 1.110202,-1.372081 3.560101,-5.82536 4.117631,-7.484782 0.09256,-0.275489 0.208992,-0.454083 0.258739,-0.396875 0.04975,0.05721 1.131718,1.949485 2.404377,4.205058 1.272659,2.255572 2.482054,4.368932 2.687545,4.696354 l 0.373621,0.595312 H 86.399444 80.825083 Z M 87.12164,57.499389 c 0.262403,-1.470818 0.274534,-7.634438 0.01831,-9.297717 l -0.191463,-1.242817 1.646671,0.999056 c 0.905669,0.549482 2.361047,1.414294 3.234172,1.921804 3.680211,2.139151 4.629827,2.726986 4.623087,2.861823 -0.009,0.174715 -1.020481,0.790792 -5.284546,3.217836 -1.81901,1.035354 -3.520747,2.069949 -3.781634,2.299105 -0.450344,0.395563 -0.463732,0.357153 -0.264583,-0.75909 z M 33.356397,56.809084 C 32.046709,56.035966 30.201241,54.981519 29.255355,54.465873 28.30947,53.950224 27.297439,53.346246 27.006397,53.123697 l -0.529167,-0.404635 0.529167,-0.401913 c 0.291042,-0.221054 1.18401,-0.747839 1.984375,-1.170633 0.800365,-0.422796 2.645833,-1.470779 4.101042,-2.328852 1.455208,-0.858072 2.669266,-1.540727 2.697906,-1.517012 0.02864,0.02371 -0.08018,1.259922 -0.241812,2.747124 -0.215456,1.982398 -0.215456,3.42561 0,5.408009 0.161636,1.487201 0.270452,2.716371 0.241812,2.731487 -0.02864,0.01511 -1.123635,-0.605068 -2.433323,-1.378188 z m 1.711982,-14.82784 C 34.27231,40.58426 33.063575,38.447541 32.382302,37.232984 l -1.238678,-2.208286 h 5.428755 5.428755 l -0.845382,1.124479 c -1.609445,2.140791 -2.644505,3.887332 -3.599035,6.072938 -0.527318,1.20741 -0.97725,2.218648 -0.999849,2.247196 -0.0226,0.02855 -0.69242,-1.09108 -1.488489,-2.488067 z m 51.072395,2.214269 c 0,-0.733306 -2.618386,-5.668473 -3.918096,-7.384878 l -1.35236,-1.785937 h 5.534348 5.534348 l -0.951838,1.653645 c -0.523513,0.909505 -1.333921,2.30849 -1.800908,3.108854 -0.466987,0.800365 -1.251683,2.199349 -1.743771,3.108854 -0.865444,1.599568 -1.301723,2.035091 -1.301723,1.299462 z M 77.351939,31.867536 C 75.664787,30.497873 72.645227,28.744449 70.7196,28.016215 l -1.265963,-0.478764 2.721171,-1.577802 c 1.496645,-0.867792 3.614142,-2.102721 4.705549,-2.744287 l 1.984375,-1.166485 0.0751,2.783744 c 0.04131,1.531059 0.04131,4.016583 0,5.523386 l -0.0751,2.739643 z M 44.072022,27.500114 v -5.458618 l 0.595313,0.309897 c 0.327422,0.170442 2.262187,1.289314 4.299479,2.48638 2.037292,1.197067 3.92235,2.292424 4.189019,2.434127 0.407249,0.216406 0.237863,0.349245 -1.058334,0.829983 -1.726057,0.640166 -4.863994,2.447812 -6.768706,3.899194 l -1.256771,0.957654 z m 21.298959,-0.873063 c -1.613162,-0.358428 -7.241566,-0.297063 -8.57744,0.09352 -0.850074,0.248543 -0.809355,0.152878 2.176595,-5.113658 1.896751,-3.345439 2.501911,-4.219025 2.749275,-3.96875 0.17445,0.176502 0.781156,1.154351 1.348235,2.172996 0.567079,1.018646 1.705925,3.031131 2.530769,4.472188 0.824846,1.441058 1.468297,2.637279 1.429893,2.658269 -0.0384,0.02099 -0.784202,-0.120562 -1.657327,-0.314562 z"
       style="fill:#fde237;stroke-width:0.26458332" />
    <path
       inkscape:connector-curvature="0"
       id="path888"
       d="m 60.250247,85.548327 c -0.691052,-1.20684 -1.642962,-2.84909 -2.115354,-3.649455 -1.248823,-2.115854 -1.776204,-3.205953 -1.624439,-3.357718 0.07345,-0.07345 0.742932,-0.0029 1.487742,0.156879 1.723109,0.369541 5.280631,0.373285 7.258582,0.0076 0.841335,-0.155528 1.584063,-0.228418 1.650508,-0.161976 0.06644,0.06645 -0.438775,1.116431 -1.122707,2.333303 -0.683932,1.216871 -1.797055,3.216367 -2.473611,4.443337 -0.676555,1.22696 -1.359286,2.2739 -1.517179,2.32653 -0.157895,0.0526 -0.852487,-0.89171 -1.543542,-2.09855 z M 44.245095,77.817669 v -5.456385 l 1.921735,1.446413 c 1.056955,0.795528 3.151101,2.035493 4.653659,2.755479 l 2.731923,1.309069 -2.073971,1.181412 c -2.492398,1.419765 -4.891415,2.812801 -6.241158,3.624053 l -0.992188,0.596347 z m 33.072918,4.376155 C 76.372128,81.6319 74.319853,80.428805 72.757403,79.520279 70.21558,78.042274 69.543769,77.400956 70.5373,77.400956 c 0.670248,0 5.084922,-2.43858 6.76745,-3.738205 l 1.733055,-1.338657 0.07524,2.817394 c 0.04138,1.549567 0.04138,4.000135 0,5.445707 l -0.07524,2.62831 z M 59.326346,74.72905 c -2.872539,-0.261479 -4.30194,-0.676663 -7.276042,-2.113404 -4.711087,-2.275848 -7.884575,-5.458595 -10.200401,-10.230164 -1.732027,-3.568698 -2.188858,-5.663047 -2.178562,-9.98765 0.0094,-3.931902 0.465254,-6.056665 2.038477,-9.500666 2.543673,-5.56845 8.095136,-10.271942 14.08361,-11.932376 2.471833,-0.685369 7.259603,-0.813376 10.254335,-0.274163 4.994497,0.89928 9.935046,4.046658 13.308272,8.478038 1.186326,1.558465 3.116498,5.569654 3.62853,7.540625 0.698794,2.689876 0.83515,7.342603 0.298532,10.186458 -0.760066,4.028035 -2.68656,7.808793 -5.560949,10.913401 -4.806246,5.191188 -11.154212,7.579087 -18.395802,6.919901 z m 7.204541,-13.37316 c 1.178597,-0.453411 3.378793,-2.510798 3.378793,-3.159487 0,-0.206037 0.117464,-0.374613 0.261032,-0.374613 0.496589,0 1.091266,-1.991209 1.106252,-3.704167 0.01691,-1.931749 -0.393216,-3.750632 -0.977402,-4.334819 -0.214435,-0.214434 -0.389882,-0.473255 -0.389882,-0.575151 0,-0.458465 -2.070463,-2.414397 -3.034229,-2.86639 -1.450478,-0.680249 -4.134353,-0.673852 -5.607696,0.01336 -1.113703,0.519472 -2.828766,2.309569 -3.133923,3.271033 -0.09133,0.287766 -0.262967,0.523211 -0.381405,0.523211 -0.118441,0 -0.348541,0.528974 -0.511339,1.175496 -0.555027,2.204223 -0.255797,5.252498 0.599575,6.107869 0.235042,0.235043 0.430326,0.567672 0.433964,0.73918 0.0083,0.391411 1.827244,2.30228 2.669789,2.804715 1.449038,0.864111 3.895198,1.030394 5.586471,0.379757 z m -34.241835,7.115379 c 1.896893,-3.419663 2.569195,-4.599109 3.503701,-6.146689 l 0.940366,-1.557282 1.11786,2.562143 c 0.614824,1.409176 1.82328,3.544406 2.685459,4.744953 l 1.567598,2.182812 H 36.701213 31.29839 Z m 50.015915,0.17087 c 1.110202,-1.372081 3.560101,-5.82536 4.117631,-7.484782 0.09256,-0.275489 0.208992,-0.454083 0.258739,-0.396875 0.04975,0.05721 1.131718,1.949485 2.404377,4.205058 1.272659,2.255572 2.482054,4.368932 2.687545,4.696354 l 0.373621,0.595312 h -5.574363 -5.574361 z m 4.989746,-11.364407 c 0.262403,-1.470818 0.274534,-7.634438 0.01831,-9.297717 l -0.191463,-1.242817 1.646671,0.999056 c 0.905669,0.549482 2.361047,1.414294 3.234172,1.921804 3.680211,2.139151 4.629827,2.726986 4.623087,2.861823 -0.009,0.174715 -1.020481,0.790792 -5.284546,3.217836 -1.81901,1.035354 -3.520747,2.069949 -3.781634,2.299105 -0.450344,0.395563 -0.463732,0.357153 -0.264583,-0.75909 z M 33.52947,56.587427 C 32.219782,55.814309 30.374314,54.759862 29.428428,54.244216 28.482543,53.728567 27.470512,53.124589 27.17947,52.90204 l -0.529167,-0.404635 0.529167,-0.401913 c 0.291042,-0.221054 1.18401,-0.747839 1.984375,-1.170633 0.800365,-0.422796 2.645833,-1.470779 4.101042,-2.328852 1.455208,-0.858072 2.669266,-1.540727 2.697906,-1.517012 0.02864,0.02371 -0.08018,1.259922 -0.241812,2.747124 -0.215456,1.982398 -0.215456,3.42561 0,5.408009 0.161636,1.487201 0.270452,2.716371 0.241812,2.731487 -0.02864,0.01511 -1.123635,-0.605068 -2.433323,-1.378188 z m 1.711982,-14.82784 c -0.796069,-1.396984 -2.004804,-3.533703 -2.686077,-4.74826 l -1.238678,-2.208286 h 5.428755 5.428755 l -0.845382,1.124479 c -1.609445,2.140791 -2.644505,3.887332 -3.599035,6.072938 -0.527318,1.20741 -0.97725,2.218648 -0.999849,2.247196 -0.0226,0.02855 -0.69242,-1.09108 -1.488489,-2.488067 z m 51.072395,2.214269 c 0,-0.733306 -2.618386,-5.668473 -3.918096,-7.384878 l -1.35236,-1.785937 h 5.534348 5.534348 l -0.951838,1.653645 c -0.523513,0.909505 -1.333921,2.30849 -1.800908,3.108854 -0.466987,0.800365 -1.251683,2.199349 -1.743771,3.108854 -0.865444,1.599568 -1.301723,2.035091 -1.301723,1.299462 z M 77.525012,31.645879 C 75.83786,30.276216 72.8183,28.522792 70.892673,27.794558 l -1.265963,-0.478764 2.721171,-1.577802 c 1.496645,-0.867792 3.614142,-2.102721 4.705549,-2.744287 l 1.984375,-1.166485 0.0751,2.783744 c 0.04131,1.531059 0.04131,4.016583 0,5.523386 l -0.0751,2.739643 z M 44.245095,27.278457 v -5.458618 l 0.595313,0.309897 c 0.327422,0.170442 2.262187,1.289314 4.299479,2.48638 2.037292,1.197067 3.92235,2.292424 4.189019,2.434127 0.407249,0.216406 0.237863,0.349245 -1.058334,0.829983 -1.726057,0.640166 -4.863994,2.447812 -6.768706,3.899194 l -1.256771,0.957654 z m 21.298959,-0.873063 c -1.613162,-0.358428 -7.241566,-0.297063 -8.57744,0.09352 -0.850074,0.248543 -0.809355,0.152878 2.176595,-5.113658 1.896751,-3.345439 2.501911,-4.219025 2.749275,-3.96875 0.17445,0.176502 0.781156,1.154351 1.348235,2.172996 0.567079,1.018646 1.705925,3.031131 2.530769,4.472188 0.824846,1.441058 1.468297,2.637279 1.429893,2.658269 -0.0384,0.02099 -0.784202,-0.120562 -1.657327,-0.314562 z"
       style="fill:#fcd633;stroke-width:0.26458332" />
    <path
       inkscape:connector-curvature="0"
       id="path886"
       d="m 60.077174,85.769984 c -0.691052,-1.20684 -1.642962,-2.84909 -2.115354,-3.649455 -1.248823,-2.115854 -1.776204,-3.205953 -1.624439,-3.357718 0.07345,-0.07345 0.742932,-0.0029 1.487742,0.156879 1.723109,0.369541 5.280631,0.373285 7.258582,0.0076 0.841335,-0.155528 1.584063,-0.228418 1.650508,-0.161976 0.06644,0.06645 -0.438775,1.116431 -1.122707,2.333303 -0.683932,1.216871 -1.797055,3.216367 -2.473611,4.443337 -0.676555,1.22696 -1.359286,2.2739 -1.517179,2.32653 -0.157895,0.0526 -0.852487,-0.89171 -1.543542,-2.09855 z M 44.072022,78.039326 v -5.456385 l 1.921735,1.446413 c 1.056955,0.795528 3.151101,2.035493 4.653659,2.755479 l 2.731923,1.309069 -2.073971,1.181412 c -2.492398,1.419765 -4.891415,2.812801 -6.241158,3.624053 l -0.992188,0.596347 z m 33.072918,4.376155 c -0.945885,-0.561924 -2.99816,-1.765019 -4.56061,-2.673545 -2.541823,-1.478005 -3.213634,-2.119323 -2.220103,-2.119323 0.670248,0 5.084922,-2.43858 6.76745,-3.738205 l 1.733055,-1.338657 0.07524,2.817394 c 0.04138,1.549567 0.04138,4.000135 0,5.445707 l -0.07524,2.62831 z M 56.092668,74.477849 C 51.878353,73.441217 47.23205,70.482758 44.399436,67.032369 42.672175,64.928405 40.509293,60.550882 39.925251,57.976931 39.285784,55.158713 39.34492,49.776551 40.043712,47.19553 41.794771,40.727905 46.147316,35.380737 51.87645,32.658829 c 3.046688,-1.447478 4.803961,-1.877922 8.378357,-2.052272 5.63911,-0.275063 9.996226,0.996316 14.238397,4.154676 3.074453,2.28898 4.898477,4.491054 6.683444,8.068673 1.514433,3.035387 2.041139,5.098303 2.229273,8.731249 0.232524,4.490104 -0.312698,7.15345 -2.274877,11.1125 -1.724864,3.480223 -3.588972,5.799584 -6.399191,7.961997 -1.977618,1.521743 -6.135191,3.479888 -8.414401,3.963043 -2.456702,0.520777 -7.876758,0.456719 -10.224784,-0.120846 z m 10.270501,-6.518428 c 0.691224,-0.08735 1.256771,-0.244372 1.256771,-0.34894 0,-0.104569 0.59682,-0.421728 1.326271,-0.704795 1.313559,-0.509735 4.759146,-3.402245 4.759146,-3.995221 0,-0.160507 0.304308,-0.620186 0.67624,-1.021506 1.416619,-1.528556 2.410521,-5.750785 2.14975,-9.132406 -0.15971,-2.071068 -1.344485,-6.354773 -1.75759,-6.354773 -0.12732,0 -0.496673,-0.446484 -0.820785,-0.992187 -0.861621,-1.450708 -3.103581,-3.466296 -4.547095,-4.087974 -0.691224,-0.297688 -1.256771,-0.625205 -1.256771,-0.727813 0,-0.315553 -2.598716,-0.806609 -4.268647,-0.806609 -1.580369,0 -3.947893,0.450755 -4.198019,0.799267 -0.07276,0.10138 -0.712021,0.491008 -1.420578,0.865841 -1.650719,0.873244 -4.086204,3.382576 -4.932214,5.081767 -0.362268,0.727604 -0.737066,1.382739 -0.83289,1.455857 -0.503055,0.38386 -1.080672,3.774381 -1.059148,6.21706 0.0223,2.530845 0.542393,5.334727 1.050819,5.665086 0.131834,0.08566 0.497425,0.691528 0.812427,1.346372 0.858396,1.784487 1.116105,2.153099 2.397374,3.429023 1.105553,1.100945 3.686339,2.656393 4.407458,2.656393 0.179523,0 0.366287,0.11965 0.415034,0.26589 0.09986,0.299586 2.91066,0.749229 3.924218,0.627759 0.363802,-0.0436 1.227005,-0.150741 1.918229,-0.238091 z m -34.24719,0.733505 c 1.896893,-3.419663 2.569195,-4.599109 3.503701,-6.146689 l 0.940366,-1.557282 1.11786,2.562143 c 0.614824,1.409176 1.82328,3.544406 2.685459,4.744953 l 1.567598,2.182812 H 36.52814 31.125317 Z m 50.015915,0.17087 c 1.110202,-1.372081 3.560101,-5.82536 4.117631,-7.484782 0.09256,-0.275489 0.208992,-0.454083 0.258739,-0.396875 0.04975,0.05721 1.131718,1.949485 2.404377,4.205058 1.272659,2.255572 2.482054,4.368932 2.687545,4.696354 l 0.373621,0.595312 H 86.399444 80.825083 Z M 87.12164,57.499389 c 0.262403,-1.470818 0.274534,-7.634438 0.01831,-9.297717 l -0.191463,-1.242817 1.646671,0.999056 c 0.905669,0.549482 2.361047,1.414294 3.234172,1.921804 3.680211,2.139151 4.629827,2.726986 4.623087,2.861823 -0.009,0.174715 -1.020481,0.790792 -5.284546,3.217836 -1.81901,1.035354 -3.520747,2.069949 -3.781634,2.299105 -0.450344,0.395563 -0.463732,0.357153 -0.264583,-0.75909 z M 33.356397,56.809084 C 32.046709,56.035966 30.201241,54.981519 29.255355,54.465873 28.30947,53.950224 27.297439,53.346246 27.006397,53.123697 l -0.529167,-0.404635 0.529167,-0.401913 c 0.291042,-0.221054 1.18401,-0.747839 1.984375,-1.170633 0.800365,-0.422796 2.645833,-1.470779 4.101042,-2.328852 1.455208,-0.858072 2.669266,-1.540727 2.697906,-1.517012 0.02864,0.02371 -0.08018,1.259922 -0.241812,2.747124 -0.215456,1.982398 -0.215456,3.42561 0,5.408009 0.161636,1.487201 0.270452,2.716371 0.241812,2.731487 -0.02864,0.01511 -1.123635,-0.605068 -2.433323,-1.378188 z m 1.711982,-14.82784 C 34.27231,40.58426 33.063575,38.447541 32.382302,37.232984 l -1.238678,-2.208286 h 5.428755 5.428755 l -0.845382,1.124479 c -1.609445,2.140791 -2.644505,3.887332 -3.599035,6.072938 -0.527318,1.20741 -0.97725,2.218648 -0.999849,2.247196 -0.0226,0.02855 -0.69242,-1.09108 -1.488489,-2.488067 z m 51.072395,2.214269 c 0,-0.733306 -2.618386,-5.668473 -3.918096,-7.384878 l -1.35236,-1.785937 h 5.534348 5.534348 l -0.951838,1.653645 c -0.523513,0.909505 -1.333921,2.30849 -1.800908,3.108854 -0.466987,0.800365 -1.251683,2.199349 -1.743771,3.108854 -0.865444,1.599568 -1.301723,2.035091 -1.301723,1.299462 z M 77.351939,31.867536 C 75.664787,30.497873 72.645227,28.744449 70.7196,28.016215 l -1.265963,-0.478764 2.721171,-1.577802 c 1.496645,-0.867792 3.614142,-2.102721 4.705549,-2.744287 l 1.984375,-1.166485 0.0751,2.783744 c 0.04131,1.531059 0.04131,4.016583 0,5.523386 l -0.0751,2.739643 z M 44.072022,27.500114 v -5.458618 l 0.595313,0.309897 c 0.327422,0.170442 2.262187,1.289314 4.299479,2.48638 2.037292,1.197067 3.92235,2.292424 4.189019,2.434127 0.407249,0.216406 0.237863,0.349245 -1.058334,0.829983 -1.726057,0.640166 -4.863994,2.447812 -6.768706,3.899194 l -1.256771,0.957654 z m 21.298959,-0.873063 c -1.613162,-0.358428 -7.241566,-0.297063 -8.57744,0.09352 -0.850074,0.248543 -0.809355,0.152878 2.176595,-5.113658 1.896751,-3.345439 2.501911,-4.219025 2.749275,-3.96875 0.17445,0.176502 0.781156,1.154351 1.348235,2.172996 0.567079,1.018646 1.705925,3.031131 2.530769,4.472188 0.824846,1.441058 1.468297,2.637279 1.429893,2.658269 -0.0384,0.02099 -0.784202,-0.120562 -1.657327,-0.314562 z"
       style="fill:#fbcc30;stroke-width:0.26458332" />
    <path
       inkscape:connector-curvature="0"
       id="path884"
       d="m 60.1464,85.902274 c -3.156813,-5.482656 -3.96675,-6.981732 -3.840425,-7.108057 0.0754,-0.0754 0.679514,-5.29e-4 1.342467,0.166417 1.279027,0.322065 7.495072,0.21353 8.6037,-0.150222 0.582321,-0.191066 0.556299,-0.08636 -0.468392,1.884635 -1.986508,3.821057 -3.877839,7.078417 -4.165664,7.174367 -0.156448,0.0521 -0.818705,-0.83306 -1.471686,-1.96714 z M 44.072022,78.039326 v -5.456385 l 1.91823,1.430639 c 1.688214,1.259091 4.91399,3.059906 6.787044,3.78892 0.591058,0.230048 0.480086,0.336564 -1.5875,1.523752 -2.64404,1.518181 -4.765727,2.755783 -6.125586,3.573115 l -0.992188,0.596347 z m 33.337501,4.525703 c -0.800364,-0.489606 -2.840331,-1.7028 -4.533257,-2.69599 l -3.078049,-1.8058 2.813466,-1.392335 c 1.547405,-0.765786 3.587372,-1.981877 4.533257,-2.702428 l 1.719792,-1.310092 0.07524,2.761078 c 0.04138,1.518594 0.04138,3.947882 0,5.398418 l -0.07524,2.63734 z M 56.639731,74.568871 C 55.766606,74.373747 53.942717,73.729891 52.586645,73.138082 45.44088,70.019565 40.487457,63.237757 39.550068,55.289505 38.449777,45.959987 43.294656,37.038243 51.768495,32.789521 c 3.639508,-1.824824 6.595364,-2.413829 10.925723,-2.177139 1.617742,0.08842 3.634148,0.349312 4.480904,0.579754 2.935912,0.798999 7.205036,3.222535 9.504842,5.395798 2.549641,2.40935 5.326721,7.263689 6.219778,10.87218 0.585438,2.365515 0.578918,8.24244 -0.0118,10.635898 -0.548357,2.22183 -2.642134,6.65231 -3.653816,7.731556 -0.420103,0.448161 -0.764376,0.901546 -0.765048,1.007522 -0.0021,0.346292 -2.896315,3.097271 -4.042027,3.842121 -0.615217,0.399962 -1.237636,0.864512 -1.383157,1.032335 -0.145521,0.167822 -1.157552,0.683024 -2.248958,1.144894 -1.091407,0.461873 -2.341563,0.999117 -2.778126,1.193882 -2.11247,0.942438 -8.23564,1.222597 -11.377083,0.520549 z m 10.694382,-2.233895 c 0.755645,-0.143306 1.554308,-0.440963 1.774804,-0.661458 0.220498,-0.220499 0.564692,-0.400905 0.764879,-0.400905 0.389395,0 2.790089,-1.213662 3.02764,-1.530615 0.07835,-0.104542 0.612865,-0.594188 1.187799,-1.088104 0.574935,-0.493916 1.445464,-1.386681 1.934507,-1.983925 0.489045,-0.597244 1.070525,-1.307399 1.292182,-1.57812 0.589812,-0.720376 2.210266,-4.320728 2.210266,-4.910804 0,-0.278302 0.11674,-0.545688 0.259421,-0.594196 0.420474,-0.142944 0.824151,-2.809179 0.834562,-5.512152 0.0097,-2.521381 -0.459859,-6.085417 -0.801769,-6.085417 -0.100447,0 -0.411768,-0.684609 -0.691827,-1.521354 -0.579832,-1.732393 -1.391285,-3.241145 -1.743189,-3.241145 -0.131146,0 -0.238448,-0.124172 -0.238448,-0.275937 0,-0.506431 -2.085126,-3.023044 -3.033115,-3.660772 -0.514598,-0.346181 -0.935635,-0.721067 -0.935635,-0.833083 0,-0.264443 -3.034387,-1.844792 -3.542139,-1.844792 -0.213846,0 -0.569219,-0.180406 -0.789717,-0.400903 -0.506775,-0.506774 -2.663217,-0.922013 -4.788255,-0.922013 -1.77419,0 -4.638223,0.486822 -4.638223,0.788396 0,0.102397 -0.506015,0.333548 -1.124479,0.513669 -0.618464,0.180123 -1.56841,0.615688 -2.110994,0.967922 -0.542584,0.352237 -1.028787,0.640429 -1.080455,0.640429 -0.08381,0 -2.118982,1.782099 -2.634189,2.306625 -0.518787,0.528171 -1.781133,2.287209 -1.781133,2.48195 0,0.119843 -0.249994,0.4508 -0.55554,0.73546 -0.54954,0.511974 -2.090294,4.624358 -2.090294,5.579146 0,0.271915 -0.148828,0.544166 -0.330729,0.605005 -0.423048,0.141491 -0.477558,8.053704 -0.05748,8.343764 0.150285,0.10377 0.435313,0.837687 0.633396,1.630926 0.443608,1.776482 1.515141,4.24629 1.842262,4.24629 0.133122,0 0.367786,0.360725 0.52148,0.801611 0.469575,1.34702 4.192585,4.828857 6.174978,5.774965 0.958536,0.457467 1.874597,0.831757 2.035694,0.831757 0.161097,0 0.292902,0.112057 0.292902,0.249013 0,0.678394 5.538354,1.049904 8.18084,0.548767 z m -35.218134,-3.64205 c 1.896893,-3.419663 2.569195,-4.599109 3.503701,-6.146689 l 0.940366,-1.557282 1.11786,2.562143 c 0.614824,1.409176 1.82328,3.544406 2.685459,4.744953 l 1.567598,2.182812 H 36.52814 31.125317 Z m 49.167455,1.455208 c 0.110535,-0.181901 0.728572,-1.045104 1.373415,-1.918229 1.194765,-1.617729 3.483925,-6.009259 3.483925,-6.683573 0,-0.784643 0.667263,-0.08764 1.727681,1.804685 0.6067,1.082659 1.767211,3.129331 2.578913,4.548159 l 1.475822,2.579687 h -5.420366 c -4.267089,0 -5.377603,-0.07037 -5.21939,-0.330729 z M 33.356397,56.809084 C 32.046709,56.035966 30.201241,54.981519 29.255355,54.465873 28.30947,53.950224 27.297439,53.346246 27.006397,53.123697 l -0.529167,-0.404635 0.529167,-0.401913 c 0.291042,-0.221054 1.18401,-0.747839 1.984375,-1.170633 0.800365,-0.422796 2.645833,-1.470779 4.101042,-2.328852 1.455208,-0.858072 2.669266,-1.540727 2.697906,-1.517012 0.02864,0.02371 -0.08018,1.259922 -0.241812,2.747124 -0.215456,1.982398 -0.215456,3.42561 0,5.408009 0.161636,1.487201 0.270452,2.716371 0.241812,2.731487 -0.02864,0.01511 -1.123635,-0.605068 -2.433323,-1.378188 z m 53.682926,1.035925 c 0.470968,-1.552572 0.682648,-5.267351 0.422145,-7.408333 -0.15493,-1.273307 -0.344895,-2.523463 -0.422145,-2.778125 -0.194845,-0.64231 -0.0075,-0.593397 1.773549,0.463021 0.858679,0.509323 2.245845,1.320882 3.082589,1.803466 3.391178,1.955821 4.563596,2.680859 4.554406,2.8165 -0.0126,0.185624 -1.58006,1.140558 -5.017426,3.056705 -1.527969,0.85176 -3.094162,1.764911 -3.480428,2.029222 -0.879133,0.601564 -1.091091,0.605639 -0.91269,0.01754 z M 35.068379,41.981244 C 34.27231,40.58426 33.063575,38.447541 32.382302,37.232984 l -1.238678,-2.208286 h 5.428755 5.428755 l -0.845382,1.124479 c -1.609445,2.140791 -2.644505,3.887332 -3.599035,6.072938 -0.527318,1.20741 -0.97725,2.218648 -0.999849,2.247196 -0.0226,0.02855 -0.69242,-1.09108 -1.488489,-2.488067 z m 51.070114,1.973141 c -0.0046,-0.660916 -2.708754,-5.660454 -3.851889,-7.121406 -0.645102,-0.824454 -1.172914,-1.568594 -1.172914,-1.653645 0,-0.08505 2.435699,-0.154636 5.412664,-0.154636 h 5.41266 l -0.954828,1.653645 c -1.101333,1.907379 -2.604828,4.539657 -3.626967,6.35 -0.684178,1.211773 -1.213979,1.614337 -1.218726,0.926042 z M 44.072022,27.507161 v -5.465665 l 0.595313,0.309897 c 0.327422,0.170442 2.262187,1.289314 4.299479,2.48638 2.037292,1.197067 3.930285,2.296865 4.20665,2.443995 0.443741,0.236236 0.381876,0.305663 -0.529166,0.593859 -1.490851,0.47161 -5.332798,2.568894 -6.720192,3.668492 -0.654844,0.519006 -1.339453,1.052784 -1.521354,1.186176 -0.261737,0.191936 -0.33073,-0.897643 -0.33073,-5.223134 z M 78.196,32.463838 C 77.836198,32.219531 77.176505,31.706389 76.730013,31.323523 75.741894,30.476209 72.44748,28.661225 70.722145,28.013619 l -1.26342,-0.474225 2.05717,-1.188223 c 1.131443,-0.653523 2.771545,-1.606413 3.64467,-2.117534 0.873125,-0.51112 2.093516,-1.219437 2.711979,-1.574037 l 1.124479,-0.644726 v 5.446578 c 0,2.995618 -0.03304,5.446579 -0.07342,5.446579 -0.04038,0 -0.367805,-0.199887 -0.727603,-0.444193 z M 56.345821,26.402123 c 0.105723,-0.278053 1.286664,-2.435899 2.624315,-4.795213 1.896751,-3.345439 2.501911,-4.219025 2.749275,-3.96875 0.17445,0.176502 0.78282,1.154351 1.351936,2.172996 0.569116,1.018646 1.656599,2.963433 2.416628,4.321748 0.760029,1.358316 1.332677,2.518859 1.27255,2.578986 -0.06013,0.06013 -0.814091,-0.02278 -1.675474,-0.18424 -1.593969,-0.298775 -7.085102,-0.174351 -8.29151,0.187878 -0.553468,0.166181 -0.613965,0.123833 -0.44772,-0.313405 z"
       style="fill:#fac52d;stroke-width:0.26458332" />
    <path
       inkscape:connector-curvature="0"
       id="path882"
       d="m 60.314913,86.155424 c -0.539507,-0.98226 -1.616898,-2.91331 -2.394199,-4.291212 -0.777301,-1.377903 -1.413275,-2.6112 -1.413275,-2.740663 0,-0.129461 0.327422,-0.149368 0.727605,-0.04424 1.830146,0.480801 8.476242,0.683438 8.628877,0.263091 0.05284,-0.14552 0.180242,-0.186793 0.283115,-0.09171 0.213421,0.19725 -0.214066,1.107104 -2.294385,4.883314 -1.827392,3.3171 -2.132417,3.80736 -2.368825,3.80736 -0.103394,0 -0.629404,-0.80367 -1.168913,-1.78594 z m -16.242891,-8.02728 v -5.328891 l 0.727605,0.462323 c 0.400182,0.254275 0.965729,0.671859 1.25677,0.92796 0.894228,0.78687 4.088199,2.641989 5.520913,3.206649 0.74704,0.294423 1.398574,0.57559 1.447858,0.624814 0.04928,0.04922 -0.880965,0.664334 -2.067211,1.366911 -1.186246,0.702575 -2.893441,1.72284 -3.793769,2.267254 -0.900326,0.544412 -1.964379,1.172549 -2.364561,1.395857 l -0.727605,0.406014 z m 33.072918,4.260757 c -4.263877,-2.552824 -5.099651,-3.081109 -5.704869,-3.606003 -0.725885,-0.629542 -0.794967,-0.807508 -0.313457,-0.807508 0.532749,0 3.637076,-1.461082 3.637076,-1.711825 0,-0.125648 0.125378,-0.228452 0.278619,-0.228452 0.470305,0 2.111876,-1.225479 1.910853,-1.426501 -0.103934,-0.103931 0.0066,-0.113909 0.245698,-0.02217 0.290679,0.111543 0.542872,-0.03539 0.761325,-0.443579 0.967346,-1.807499 1.036838,-1.540071 1.036838,3.990017 0,2.920812 -0.02976,5.304964 -0.06615,5.298119 -0.03638,-0.0069 -0.840052,-0.475789 -1.785938,-1.042098 z M 31.800411,69.222092 c 0.393403,-0.691224 1.096681,-1.911614 1.562839,-2.711979 0.466158,-0.800364 1.351502,-2.329238 1.96743,-3.397496 l 1.119869,-1.942287 1.394378,2.868329 c 0.766907,1.577581 2.00142,3.672001 2.743362,4.654267 l 1.348984,1.785937 h -5.42607 -5.426071 z M 81.90744,70.21428 c 0.363802,-0.11651 0.521756,-0.223706 0.351007,-0.23821 -0.325858,-0.02768 -0.04299,-0.68181 0.983933,-2.275332 0.281339,-0.436562 0.650962,-1.06164 0.821385,-1.389062 0.170426,-0.327422 0.40608,-0.595313 0.523674,-0.595313 0.117597,0 0.145278,-0.178594 0.06152,-0.396875 -0.08376,-0.218281 -0.04255,-0.396875 0.09159,-0.396875 0.304064,0 1.002696,-1.438203 1.253641,-2.580748 0.103748,-0.472358 0.318079,-0.858835 0.476289,-0.858835 0.158213,0 0.21232,0.07534 0.120243,0.167415 -0.09208,0.09208 0.126201,0.398378 0.485068,0.680664 0.358868,0.282284 0.652487,0.618427 0.652487,0.74698 0,0.128556 0.374565,0.864055 0.832368,1.634442 0.457804,0.77039 1.400472,2.382973 2.09482,3.58352 l 1.262452,2.182812 -5.335966,-0.02638 C 83.495813,70.437233 81.524877,70.336798 81.90744,70.21428 Z M 43.399685,65.434177 c -0.09592,-0.155202 -0.117656,-0.338931 -0.0483,-0.408286 0.06935,-0.06936 0.196602,0.05763 0.282773,0.282186 0.178907,0.466225 0.02642,0.548232 -0.234472,0.1261 z m -0.726166,-1.154115 c -0.207882,-0.20788 -0.70329,-1.190146 -1.100906,-2.182812 -0.397617,-0.992664 -0.885529,-2.162032 -1.08425,-2.598595 -0.702258,-1.542762 -0.976805,-4.018296 -0.856116,-7.719446 0.125728,-3.855704 0.396507,-5.003562 2.048722,-8.68472 0.645373,-1.437899 3.325242,-5.423958 3.646584,-5.423958 0.0727,0 0.0283,0.15444 -0.09866,0.343199 -0.126959,0.188759 -0.01773,0.11018 0.242729,-0.174623 0.26046,-0.284802 0.558116,-0.66177 0.661459,-0.837707 0.239771,-0.408202 1.37852,-0.7712 1.37852,-0.439429 0,0.13751 -0.187296,0.405459 -0.416213,0.595443 -0.228917,0.189984 -0.641719,0.787453 -0.917337,1.327708 -0.275618,0.540255 -0.653962,1.143534 -0.840766,1.340617 -0.562896,0.593873 -1.700421,2.922572 -2.081387,4.260937 -0.196756,0.691224 -0.441265,1.256771 -0.543352,1.256771 -0.443564,0 -1.101091,4.082971 -1.214353,7.540625 -0.09073,2.769936 -0.0078,4.338108 0.328714,6.217708 0.247527,1.382448 0.466984,2.766274 0.487684,3.075167 0.0222,0.331264 0.17329,0.509572 0.368364,0.434713 0.181901,-0.0698 0.330729,0.04061 0.330729,0.245354 0,0.204748 -0.148828,0.532664 -0.330729,0.728707 -0.268077,0.288917 -0.253756,0.329698 0.07559,0.215268 0.27167,-0.09439 0.406325,0.02424 0.406325,0.357934 0,0.598474 -0.01125,0.601249 -0.491361,0.121139 z m -8.126497,-6.770433 c -0.654844,-0.393547 -2.083594,-1.225929 -3.175,-1.849737 -4.17529,-2.386443 -4.765667,-2.766319 -4.683291,-3.01345 0.04669,-0.140068 1.030234,-0.785892 2.185654,-1.435161 1.155419,-0.649269 2.874668,-1.615919 3.820554,-2.14811 0.945885,-0.532193 2.066073,-1.196176 2.489306,-1.475523 l 0.769516,-0.507899 -0.167447,0.785495 c -0.385262,1.807265 -0.500216,6.422593 -0.20663,8.296071 0.16844,1.07488 0.272889,1.978969 0.232109,2.009089 -0.04078,0.03012 -0.609927,-0.267229 -1.264771,-0.660775 z m 52.824464,-0.481436 c 0.458965,-1.525021 0.446749,-6.630453 -0.02006,-8.377454 -0.194413,-0.727604 -0.317579,-1.363168 -0.273706,-1.412362 0.04388,-0.04919 0.416555,0.142169 0.828178,0.425252 0.411623,0.283083 1.879497,1.141648 3.261945,1.907923 3.633832,2.014194 5.291794,3.007559 5.290804,3.169986 -5.3e-4,0.07839 -1.042273,0.726308 -2.315104,1.439812 -1.272834,0.713502 -2.730961,1.561262 -3.240284,1.883908 -0.509323,0.322646 -1.592612,0.938038 -2.407309,1.367541 l -1.481267,0.78091 0.356788,-1.185516 z M 35.721553,43.05559 C 35.319066,42.34938 34.43246,40.819072 33.751316,39.654906 33.070172,38.490739 32.205032,36.972692 31.828781,36.281468 l -0.684091,-1.25677 h 5.411628 5.411627 l -1.446414,1.921734 c -0.795527,1.056955 -2.036312,3.15281 -2.757299,4.657455 l -1.310886,2.735718 z m 50.169843,-0.02725 c -0.471728,-1.3159 -2.656218,-5.352992 -3.1799,-5.876673 -0.227881,-0.227881 -0.688719,-0.799675 -1.024083,-1.270651 l -0.609756,-0.856318 h 5.439529 5.439529 l -0.750771,1.25677 c -0.412925,0.691224 -1.612874,2.715287 -2.666553,4.497917 -1.053679,1.78263 -2.000501,3.241146 -2.104046,3.241146 -0.103547,0 -0.348324,-0.446485 -0.543949,-0.992188 z M 47.621647,35.913315 c 0.146104,-0.380741 0.10881,-0.388898 -0.302422,-0.06615 -0.426461,0.334705 -0.436087,0.326086 -0.105951,-0.09487 0.199719,-0.254662 0.488,-0.463021 0.640623,-0.463021 0.152625,0 0.525,-0.207508 0.827501,-0.461128 0.474162,-0.397545 0.467915,-0.367832 -0.04531,0.21549 -0.327422,0.37214 -0.595313,0.817773 -0.595313,0.990295 0,0.172522 -0.131799,0.313676 -0.29289,0.313676 -0.162863,0 -0.218904,-0.192806 -0.126235,-0.434299 z m 1.910944,-1.814659 c 0.08376,-0.218281 0.273198,-0.396875 0.420968,-0.396875 0.154864,0 0.129149,0.168118 -0.0607,0.396875 -0.181158,0.218281 -0.370594,0.396875 -0.420968,0.396875 -0.05037,0 -0.02307,-0.178594 0.0607,-0.396875 z m -5.460569,-6.605332 v -5.47845 l 1.12448,0.644726 c 3.777075,2.165608 4.551394,2.624116 5.184232,3.069814 0.386512,0.272213 1.220301,0.756911 1.852867,1.077108 0.632563,0.320196 1.079415,0.652876 0.993002,0.739289 -0.08641,0.08641 -0.752967,0.366951 -1.481232,0.623419 -1.542148,0.543086 -4.908699,2.537123 -6.539321,3.873295 l -1.134028,0.92925 z m 34.131251,4.879609 c -0.363802,-0.284621 -0.840052,-0.681479 -1.058333,-0.881907 -1.113909,-1.022805 -5.962179,-3.610078 -6.764893,-3.610078 -0.935668,0 -0.462886,-0.584313 1.274164,-1.574746 1.05537,-0.601751 2.69276,-1.564371 3.638646,-2.139154 0.945885,-0.574783 2.166276,-1.286402 2.711979,-1.581374 l 0.992187,-0.536314 v 5.429335 c 0,2.986135 -0.02976,5.425375 -0.06615,5.420533 -0.03638,-0.0048 -0.363802,-0.241674 -0.727605,-0.526295 z M 56.242856,26.668796 c 0,-0.110097 0.933021,-1.831418 2.56979,-4.740973 2.722411,-4.839421 2.613697,-4.682486 2.957121,-4.268684 0.328242,0.395504 1.943303,3.268982 3.903128,6.944339 l 1.144579,2.146489 -1.120121,-0.216737 c -1.449591,-0.280487 -6.878683,-0.279968 -8.330018,7.94e-4 -0.618463,0.119644 -1.124479,0.18029 -1.124479,0.134769 z"
       style="fill:#f9b429;stroke-width:0.26458332" />
  </g>
</svg>
